<svg xmlns="http://www.w3.org/2000/svg" viewBox="0 0 192.0 192.0"><g fill="#000000"><path d="M863 1909 c-197 -25 -308 -172 -259 -341 21 -72 76 -133 223 -250 62 -49 113 -93 113 -97 0 -4 -28 -16 -62 -25 -199 -55 -363 -177 -437 -323 -51 -102 -68 -293 -36 -418 49 -194 194 -352 383 -417 95 -33 286 -32 382 1 154 54 291 173 359 313 62 125 74 189 69 343 -6 143 -31 239 -89 342 -79 138 -154 199 -364 299 -66 31 -170 80 -231 109 -114 54 -184 106 -211 158 -20 39 -13 120 13 148 57 63 172 81 254 39 25 -12 86 -63 137 -112 94 -90 139 -118 193 -118 42 0 94 23 114 51 23 33 21 116 -4 157 -42 69 -169 124 -329 142 -97 11 -129 11 -218 -1z m201 -841 c56 -87 99 -196 121 -307 25 -121 17 -387 -14 -484 -68 -211 -297 -234 -356 -35 -25 84 -38 270 -32 438 9 222 32 302 110 379 45 44 94 79 114 80 6 1 32 -31 57 -71z"/><circle cx="192" cy="192" r="45.7"/><path d="M520.5 78.1z"/></g></svg>